<svg viewBox="0 0 100 100" xmlns="http://www.w3.org/2000/svg"><title>Icons / Black / Bus</title><path d="M92.922 50.49c0-.04 0-.04 0 0 0-11.038-2.408-21.214-6.254-32.917C82.823 5.832 73.034 0 67.635 0H50.039l-.078.274L49.883 0H32.287C26.888 0 17.1 5.87 13.254 17.573 9.408 29.315 7 39.453 7 50.45a3 3 0 0 0 .117.822v26.067c0 4.461 3.418 8.14 7.768 8.532v11.546c0 1.409 1.166 2.583 2.564 2.583h9.944c1.398 0 2.564-1.174 2.564-2.583V85.91h39.232v11.507c0 1.409 1.165 2.583 2.563 2.583h9.944c1.399 0 2.564-1.174 2.564-2.583V85.91h.233c4.7 0 8.507-3.836 8.507-8.571v-26.85h-.078zM27.393 8.962c0-1.722 1.398-3.17 3.146-3.17H68.14c1.71 0 3.146 1.409 3.146 3.17v.352c0 1.722-1.398 3.17-3.146 3.17h-37.6c-1.71 0-3.147-1.409-3.147-3.17v-.352zm-4.933 65.44c-3.185 0-5.75-2.583-5.75-5.792 0-3.21 2.565-5.793 5.75-5.793s5.749 2.583 5.749 5.793c0 3.209-2.564 5.792-5.75 5.792zm54.07 0c-3.185 0-5.749-2.583-5.749-5.792 0-3.21 2.564-5.793 5.75-5.793 3.184 0 5.748 2.583 5.748 5.793 0 3.209-2.564 5.792-5.749 5.792zm3.185-23.6h-61.1c-1.4 0-2.564-1.175-2.564-2.584l4.272-27.475c0-1.41 1.166-2.584 2.564-2.584h52.594c1.399 0 2.564 1.175 2.564 2.584l4.273 27.475c-.039 1.41-1.204 2.583-2.603 2.583z" fill="currentColor"/></svg>