<svg viewBox="0 0 100 100" xmlns="http://www.w3.org/2000/svg"><title>Icons / Black / Currency Pound</title><path d="M56.672 0c8.766 0 17.532 1.843 26.298 5.53L76.7 21.037c-7.059-2.877-13.172-4.315-18.342-4.315-3.506 0-6.204 1-8.092 3-1.888 2.001-2.832 4.867-2.832 8.598v13.014h25.287v14.767H47.434v9.643c0 7.642-3.394 13.217-10.182 16.723h48.416V100H15V83.277c4.63-1.978 7.81-4.248 9.541-6.81 1.731-2.563 2.597-6.092 2.597-10.587v-9.778H15.135V41.335h12.003V28.186c0-9.036 2.573-15.992 7.72-20.87C40.006 2.44 47.277 0 56.672 0z" fill="currentColor" fill-rule="evenodd"/></svg>