<svg viewBox="0 0 100 100" xmlns="http://www.w3.org/2000/svg"><title>Icons / Black / Hotel</title><path d="M97 8.008V100H3V8.008h22.093V0h49.776v8.008H97zm-70.172 9.844H13.95v13.085h12.916V17.852h-.038zm19.74 0H33.691v13.085h12.916V17.852h-.039zm19.741 0H53.393v13.085h12.916V17.852zm19.741 0H73.134v13.085H86.05V17.852zm-59.222 20H13.95v13.086h12.916V37.852h-.038zm19.74 0H33.691v13.086h12.916V37.852h-.039zm19.741 0H53.393v13.086h12.916V37.852zm19.741 0H73.134v13.086H86.05V37.852zm-59.222 20H13.95v13.086h12.916V57.852h-.038zm19.74 0H33.691v13.086h12.916V57.852h-.039zm19.741 0H53.393v13.086h12.916V57.852zm-19.74 20H33.69V100h12.916V77.852h-.039zm19.74 0H53.393V100h12.916V77.852zm19.741-20H73.134v13.086H86.05V57.852z" fill="currentColor" fill-rule="evenodd"/></svg>