<svg viewBox="0 0 100 100" xmlns="http://www.w3.org/2000/svg"><title>Icons / Black / Infant</title><path d="M50.323 26.641c7.35-.009 13.318-5.972 13.318-13.32C63.641 5.95 57.677-.015 50.323 0 42.959-.016 36.993 5.95 37 13.322c-.006 7.347 5.959 13.31 13.323 13.32zm33.034 25.016l-19.02-19.16C62.774 30.96 60.99 30.023 58.354 30H41.479c-2.667.023-4.338.99-5.873 2.497L16.814 51.432c-5.156 5.182 1.799 11.794 6.943 6.633l11.868-11.523v11.94h28.749V46.485l12.04 11.748c4.688 4.992 11.836-1.681 6.943-6.576zm-18.42 11.632L53.718 74.506l8.273 8.214-8.441 8.444c-4.996 4.972 1.871 12.092 7.02 6.971l13.316-13.882c2.885-2.936 3.676-8.33.63-11.387-.034-.023-9.58-9.577-9.58-9.577zM38.252 82.72l8.213-8.214L35.247 63.29s-9.52 9.554-9.52 9.575c-3.078 3.057-2.289 8.451.567 11.387l13.37 13.884c5.125 5.12 11.99-2 7.029-6.971l-8.441-8.444z" fill="currentColor" fill-rule="evenodd"/></svg>