<svg viewBox="0 0 100 100" xmlns="http://www.w3.org/2000/svg"><title>Icons / Black / Info</title><path d="M49.334.005C21.75.358-.348 23.044.004 50.667c.353 27.583 23.039 49.681 50.662 49.329 27.623-.353 49.682-23.039 49.33-50.662C99.643 21.712 76.957-.386 49.334.005zm5.564 16.652c5.093 0 6.582 2.939 6.582 6.308 0 4.232-3.37 8.11-9.13 8.11-4.818 0-7.091-2.428-6.973-6.425 0-3.37 2.82-7.993 9.52-7.993zM41.85 81.228c-3.487 0-6.034-2.116-3.605-11.363l3.997-16.456c.705-2.625.823-3.683 0-3.683-1.058 0-5.564 1.803-8.228 3.605l-1.724-2.86c8.463-7.053 18.18-11.206 22.333-11.206 3.488 0 4.036 4.114 2.312 10.422L52.39 66.966c-.823 3.056-.47 4.114.353 4.114 1.058 0 4.466-1.254 7.797-3.918l1.959 2.625C54.31 78.093 45.337 81.228 41.85 81.228z" fill="currentColor" fill-rule="evenodd"/></svg>