<svg viewBox="0 0 100 100" xmlns="http://www.w3.org/2000/svg"><title>Icons / Black / Key</title><path d="M69.91 0C53.34 0 39.857 13.553 39.857 30.207a29.992 29.992 0 0 0 3.637 14.388L2.254 86.049c-3.005 3.021-3.005 7.95 0 10.97a7.673 7.673 0 0 0 5.457 2.266 7.673 7.673 0 0 0 5.456-2.266l2.847-2.862 3.559 3.577A7.673 7.673 0 0 0 25.03 100a7.673 7.673 0 0 0 5.456-2.266c3.005-3.02 3.005-7.949 0-10.97l-3.558-3.576 4.903-4.929 3.558 3.577a7.673 7.673 0 0 0 5.457 2.266 7.673 7.673 0 0 0 5.457-2.266c3.005-3.02 3.005-7.949 0-10.97l-3.559-3.577 11.388-11.446a29.784 29.784 0 0 0 15.817 4.53C86.516 60.374 100 46.82 100 30.168 99.96 13.553 86.477 0 69.91 0zm0 44.913c-8.067 0-14.631-6.598-14.631-14.706S61.843 15.5 69.909 15.5s14.63 6.598 14.63 14.706-6.564 14.706-14.63 14.706z" fill="currentColor" fill-rule="evenodd"/></svg>