<svg viewBox="0 0 100 100" xmlns="http://www.w3.org/2000/svg"><title>Icons / Black / Luggage</title><path d="M71.017 11.992h-9.349c.039-.273.039-.586.039-.86v-3.32C61.707 3.516 58.23 0 53.981 0h-8.962c-4.25 0-7.726 3.516-7.726 7.813v3.32c0 .312.039.586.039.86h-9.349c-2.742 0-4.983 2.265-4.983 5.038v72.461c0 2.774 2.24 5.04 4.983 5.04h1.005c-.116.39-.194.82-.194 1.25 0 2.304 1.855 4.218 4.172 4.218 2.318 0 4.134-1.875 4.134-4.219 0-.43-.077-.86-.193-1.25h25.148c-.116.39-.193.82-.193 1.25 0 2.305 1.854 4.219 4.172 4.219 2.317 0 4.172-1.875 4.172-4.219 0-.43-.078-.86-.194-1.25h1.005c2.742 0 4.983-2.265 4.983-5.039v-72.46c0-2.774-2.24-5.04-4.983-5.04zm-26.77-4.14a.78.78 0 0 1 .772-.782h8.962a.78.78 0 0 1 .773.782v3.32a.78.78 0 0 1-.773.781h-8.962a.78.78 0 0 1-.773-.781v-3.32z" fill="currentColor" fill-rule="evenodd"/></svg>