<svg xmlns="http://www.w3.org/2000/svg" viewBox="17 11 30 42"><path d="M47 34.5v17a1.5 1.5 0 0 1-1.5 1.5h-4a1.5 1.5 0 0 1-1.5-1.5V37h-3V22.187C37 12.683 46.906 11 46.906 11l.084 23.407c.002.031.01.061.01.093zM29.502 11H28v12.658c0 .741-.592 1.342-1.333 1.342a1.338 1.338 0 0 1-1.333-1.342V11h-2.667v12.658c0 .741-.592 1.342-1.333 1.342A1.339 1.339 0 0 1 20 23.658V11h-1.502c-.827 0-1.498.668-1.498 1.509v13.484c0 2.266 3.014 3.542 4 3.899V53h5.926V29.955c.688-.246 4.074-1.572 4.074-3.962V12.502c0-.83-.675-1.502-1.498-1.502z" fill="currentColor"/></svg>