<svg xmlns="http://www.w3.org/2000/svg" viewBox="0 0 256 256"><path d="M215.6 238.6h6c19 0 34.5-15.5 34.5-34.5V88.5c0-19-15.5-34.5-34.5-34.5h-6v184.6zm-180.8 0h4.5V53.9h-4.5C15.8 53.9.3 69.4.3 88.6v115.8c0 18.7 15.5 34.2 34.5 34.2zM199.1 54.4V54h-16.6V29.7c0-6.7-5.6-12.3-12.3-12.3H84.8c-6.7 0-12.3 5.6-12.3 12.3v24.2H55.9v184.7h143.2V54.4zM170.6 122c-3.8 4-11.7 11.9-13.5 13.7l11 49.1-12.3 7.9-19.7-35.7-18.1 17.9 4 13.5-8.7 9.4L99 179.4l-18.6-14.3 8.7-8.8 14.4 3.1 17.5-17-37-21.1 10.7-11.9 47.1 11 14.1-13s13.5-9.4 17.9-4.5c4.4 4.6 1.1 14.5-3.2 19.1z" fill="currentColor"/></svg>