<svg viewBox="0 0 100 100" xmlns="http://www.w3.org/2000/svg"><title>Icons / Black / Smile</title><g fill="currentColor" fill-rule="evenodd"><path d="M50 0C22.383 0 0 22.383 0 50s22.383 50 50 50 50-22.383 50-50S77.617 0 50 0zm30.39 80.39C72.267 88.517 61.485 92.97 50 92.97c-11.484 0-22.266-4.453-30.39-12.578C11.483 72.266 7.03 61.484 7.03 50c0-11.484 4.453-22.266 12.578-30.39C27.734 11.483 38.516 7.03 50 7.03c11.484 0 22.266 4.453 30.39 12.578C88.517 27.734 92.97 38.516 92.97 50c0 11.484-4.453 22.266-12.578 30.39z"/><circle cx="35.925" cy="34.925" r="6.925"/><circle cx="64.925" cy="34.925" r="6.925"/><path d="M79.32 47c-2.043 0-3.678 1.582-3.678 3.56 0 13.406-11.284 24.321-25.142 24.321-13.858 0-25.142-10.915-25.142-24.322 0-1.977-1.635-3.559-3.679-3.559C19.635 47 18 48.582 18 50.56 18 67.92 32.594 82 50.5 82 68.447 82 83 67.881 83 50.56c0-1.978-1.635-3.56-3.68-3.56z"/></g></svg>