<svg viewBox="0 0 100 100" xmlns="http://www.w3.org/2000/svg"><title>Icons / Black / Poi-excursion</title><g fill="currentColor" fill-rule="evenodd"><path d="M97.09 50.779L49.353 3.043c-3.998-3.998-10.569-3.998-14.567 0l-6.65 6.65c-.672.672-1.068 1.583-1.029 2.533a3.6 3.6 0 0 0 1.07 2.533l.078.08a10.205 10.205 0 0 1 3.009 7.282c0 2.77-1.07 5.344-3.009 7.283a10.273 10.273 0 0 1-7.283 3.008c-2.73 0-5.304-1.068-7.283-3.008l-.119-.119a3.6 3.6 0 0 0-2.533-1.068c-.95 0-1.86.356-2.533 1.029l-5.462 5.541c-3.998 3.998-3.998 10.569 0 14.567l47.736 47.735a10.213 10.213 0 0 0 7.283 3.009c2.652 0 5.264-.99 7.283-3.009l5.462-5.462c1.346-1.346 1.385-3.562.08-4.948-3.84-4.077-3.761-10.37.197-14.328 3.958-3.959 10.252-4.077 14.329-.198 1.385 1.306 3.602 1.306 4.947-.08l6.69-6.689a10.205 10.205 0 0 0 3.008-7.283c.04-2.81-1.03-5.383-2.969-7.322zm-5.027 9.539L87.59 64.79c-6.769-4.236-15.635-3.365-21.493 2.493-5.858 5.858-6.73 14.764-2.494 21.493l-3.285 3.286c-1.227 1.227-3.246 1.227-4.513 0L8.07 44.327c-1.228-1.227-1.228-3.246 0-4.513l3.206-3.206c2.85 1.9 6.174 2.93 9.697 2.93 4.67 0 9.025-1.822 12.31-5.107a17.341 17.341 0 0 0 5.106-12.31c0-3.483-1.029-6.848-2.929-9.697l4.394-4.394c1.227-1.227 3.246-1.227 4.512 0l47.736 47.736c.594.594.91 1.385.91 2.256-.04.87-.356 1.662-.95 2.296z"/><path d="M45.712 32.73c-.475-.476-1.227-.476-1.662 0-.475.474-.475 1.226 0 1.662l22.997 22.997c.237.237.554.356.83.356.278 0 .595-.119.832-.356.475-.475.475-1.227 0-1.663L45.712 32.73zM34.233 44.168c-.475-.475-1.227-.475-1.662 0-.475.475-.475 1.227 0 1.663l22.997 22.997c.237.237.554.356.831.356.277 0 .594-.119.831-.356.475-.475.475-1.227 0-1.663L34.233 44.168zm5.74-5.739c-.475-.475-1.227-.475-1.663 0-.475.475-.475 1.227 0 1.662l22.997 22.997c.238.238.554.357.832.357.277 0 .593-.119.83-.357.476-.474.476-1.227 0-1.662L39.974 38.43z"/></g></svg>