<svg version="1.1" id="zero-card-fee" xmlns="http://www.w3.org/2000/svg" xmlns:xlink="http://www.w3.org/1999/xlink" x="0px" y="0px" viewBox="0 0 226.56 32.34" xml:space="preserve"><title>Asset 1</title><g id="icon-zero-card-fee_Layer_2" data-name="Layer 2"><g id="icon-zero-card-fee_Layer_1-2" data-name="Layer 1"><path fill="currentColor" class="cls-1" d="M66.88,23H63.35l.95-3.91L67.12,7.39a.25.25,0,0,0,0-.26A.31.31,0,0,0,66.82,7H59.68a.34.34,0,0,0-.38.38V9.67a.34.34,0,0,0,.38.38h3.48L59.39,25.64a.26.26,0,0,0,0,.27.33.33,0,0,0,.26.11h7.2a.34.34,0,0,0,.38-.38V23.35A.34.34,0,0,0,66.88,23Z"></path><path fill="currentColor" class="cls-1" d="M75.57,7H69.68a.34.34,0,0,0-.38.38V25.64a.34.34,0,0,0,.38.38h5.89a.34.34,0,0,0,.38-.38V23.22a.34.34,0,0,0-.38-.38H73.26V17.27h1.9a.34.34,0,0,0,.38-.38V14.48a.34.34,0,0,0-.38-.38h-1.9V10.19h2.31a.34.34,0,0,0,.38-.38V7.39A.34.34,0,0,0,75.57,7Z"></path><path fill="currentColor" class="cls-1" d="M85.61,16.66a3.26,3.26,0,0,0,.52-1.81V10.43a3.31,3.31,0,0,0-.27-1.33A3.44,3.44,0,0,0,84,7.28a3.25,3.25,0,0,0-.85-.22,3.43,3.43,0,0,0-.49,0H78.64a.33.33,0,0,0-.38.38V25.64a.34.34,0,0,0,.38.38h2.42a.32.32,0,0,0,.35-.27l0,.27V19l1.76,5.91.22.74a.54.54,0,0,0,.2.27.52.52,0,0,0,.31.11H86.4c.23,0,.32-.13.27-.38L84.26,17.9A3.5,3.5,0,0,0,85.61,16.66ZM83,14.72a.65.65,0,0,1-.65.65h-.87V9.91h.87a.65.65,0,0,1,.65.65Z"></path><path fill="currentColor" class="cls-1" d="M95.06,7.82A3.51,3.51,0,0,0,94,7.09a3.3,3.3,0,0,0-1.33-.27h-1a3.3,3.3,0,0,0-1.33.27,3.44,3.44,0,0,0-1.82,1.82,3.3,3.3,0,0,0-.27,1.33V22.79a3.29,3.29,0,0,0,.27,1.33,3.44,3.44,0,0,0,1.82,1.82,3.3,3.3,0,0,0,1.33.27h1A3.3,3.3,0,0,0,94,25.93a3.44,3.44,0,0,0,1.82-1.82,3.3,3.3,0,0,0,.27-1.33V10.24a3.31,3.31,0,0,0-.27-1.33A3.49,3.49,0,0,0,95.06,7.82ZM92.89,22.65a.65.65,0,0,1-.65.65H92a.63.63,0,0,1-.33-.1.64.64,0,0,1-.13-.09.63.63,0,0,1-.19-.46V10.38a.62.62,0,0,1,.19-.46.65.65,0,0,1,.13-.09.62.62,0,0,1,.33-.1h.22a.65.65,0,0,1,.65.65Z"></path><path fill="currentColor" class="cls-1" d="M109.23,7.79a3.24,3.24,0,0,0-1-.73,2.85,2.85,0,0,0-1.2-.27h-1a2.84,2.84,0,0,0-1.22.27,3.21,3.21,0,0,0-1,.73,3.57,3.57,0,0,0-.92,2.42V22.75a3.54,3.54,0,0,0,.25,1.33,3.49,3.49,0,0,0,.67,1.09,3.19,3.19,0,0,0,1,.73,2.84,2.84,0,0,0,1.22.27h1a2.84,2.84,0,0,0,1.2-.27,3.23,3.23,0,0,0,1-.73,3.49,3.49,0,0,0,.67-1.09,3.54,3.54,0,0,0,.25-1.33V19.36a.46.46,0,0,0-.33-.49l-2.27-.33c-.22-.07-.32,0-.32.27v3.8a.65.65,0,0,1-.17.46l0,0a.55.55,0,0,1-.4.17h-.2a.55.55,0,0,1-.42-.19.65.65,0,0,1-.18-.46V10.34a.65.65,0,0,1,.18-.46.55.55,0,0,1,.42-.19h.2a.55.55,0,0,1,.4.17l0,0a.66.66,0,0,1,.17.46V13c0,.25.11.34.32.27l2.27-.38a.46.46,0,0,0,.33-.49V10.21a3.54,3.54,0,0,0-.25-1.33A3.51,3.51,0,0,0,109.23,7.79Z"></path><path fill="currentColor" class="cls-1" d="M118.8,16.63a3.47,3.47,0,0,0,.48-1.81V10.4A3.57,3.57,0,0,0,118.35,8a3.18,3.18,0,0,0-1-.73,2.78,2.78,0,0,0-.93-.24,2.9,2.9,0,0,0-.29,0h-3.75c-.23,0-.35.13-.35.38V25.6q0,.38.35.38h2.22a.3.3,0,0,0,.32-.27l0,.27v-7l.2.75,1.26,4.61.35,1.29a.55.55,0,0,0,.19.27.45.45,0,0,0,.29.11h2.27q.32,0,.25-.38l-2.22-7.74A3.32,3.32,0,0,0,118.8,16.63Zm-2.45-1.94a.66.66,0,0,1-.18.46.56.56,0,0,1-.42.19h-.59V9.88h.59a.56.56,0,0,1,.42.19.66.66,0,0,1,.18.46Z"></path><path fill="currentColor" class="cls-1" d="M127.19,7h-5.42q-.35,0-.35.38V25.6q0,.38.35.38h5.42c.23,0,.35-.13.35-.38V23.19c0-.25-.12-.38-.35-.38h-2.4V17.24h2c.23,0,.35-.13.35-.38V14.44c0-.26-.12-.38-.35-.38h-2V10.15h2.4c.23,0,.35-.13.35-.38V7.35C127.54,7.1,127.42,7,127.19,7Z"></path><path fill="currentColor" class="cls-1" d="M136,8a3.19,3.19,0,0,0-1-.73A2.81,2.81,0,0,0,133.91,7l-.15,0H130c-.23,0-.35.13-.35.38V25.6q0,.38.35.38h3.75l.15,0a2.8,2.8,0,0,0,1.08-.26,3.15,3.15,0,0,0,1-.73,3.53,3.53,0,0,0,.67-1.08,3.57,3.57,0,0,0,.25-1.33V10.4a3.56,3.56,0,0,0-.25-1.33A3.53,3.53,0,0,0,136,8Zm-2.08,14.75a.67.67,0,0,1-.1.16.56.56,0,0,1-.42.19h-.8V9.88h.8a.56.56,0,0,1,.42.19.67.67,0,0,1,.1.16Z"></path><path fill="currentColor" class="cls-1" d="M141.48,7h-2.22c-.23,0-.35.13-.35.38V25.6q0,.38.35.38h2.22q.35,0,.35-.38V7.36C141.83,7.1,141.71,7,141.48,7Z"></path><path fill="currentColor" class="cls-1" d="M150.52,7a.33.33,0,0,0-.15-.05h-6.44c-.23,0-.35.13-.35.38V9.77c0,.25.12.38.35.38h1.75V25.6a.36.36,0,0,0,.11.27A.34.34,0,0,0,146,26h2.22c.23,0,.35-.13.35-.38V10.15h1.77a.33.33,0,0,0,.15-.05.32.32,0,0,0,.2-.33V7.35A.32.32,0,0,0,150.52,7Z"></path><path fill="currentColor" class="cls-1" d="M161.84,7.79a3.22,3.22,0,0,0-1-.73,2.84,2.84,0,0,0-1.22-.27h-.95a2.84,2.84,0,0,0-1.22.27,3.21,3.21,0,0,0-1,.73,3.48,3.48,0,0,0-.67,1.09c0,.05,0,.11,0,.16a3.56,3.56,0,0,0-.2,1.17V22.75a3.56,3.56,0,0,0,.2,1.17c0,.05,0,.11,0,.16a3.47,3.47,0,0,0,.67,1.09,3.19,3.19,0,0,0,1,.73,2.84,2.84,0,0,0,1.22.27h.95a2.84,2.84,0,0,0,1.22-.27,3.21,3.21,0,0,0,1-.73,3.5,3.5,0,0,0,.67-1.09,3.56,3.56,0,0,0,.25-1.33V19.36a.46.46,0,0,0-.33-.49l-2.27-.33c-.22-.07-.32,0-.32.27v3.8a.66.66,0,0,1-.17.46.55.55,0,0,1-.43.19H159V9.69h.21a.56.56,0,0,1,.43.19.66.66,0,0,1,.17.46V13c0,.25.11.34.32.27l2.27-.38a.46.46,0,0,0,.33-.49V10.21a3.56,3.56,0,0,0-.25-1.33A3.52,3.52,0,0,0,161.84,7.79Z"></path><path fill="currentColor" class="cls-1" d="M169.6,7h-3.3a.37.37,0,0,0-.4.38L164,25.6q-.05.38.3.38h2.27c.22,0,.34-.13.37-.38l.2-2.93h1.55l.2,2.93c0,.25.16.38.37.38h2.27c.23,0,.33-.13.3-.38L170,7.35A.38.38,0,0,0,169.6,7Zm-1.08,12.65h-1.14l.38-5.91.09-1.45h.2l.47,7.29Z"></path><path fill="currentColor" class="cls-1" d="M180.29,16.63a3.47,3.47,0,0,0,.48-1.81V10.4A3.57,3.57,0,0,0,179.85,8a3.17,3.17,0,0,0-1-.73,2.78,2.78,0,0,0-.93-.24,2.9,2.9,0,0,0-.3,0h-3.75c-.23,0-.35.13-.35.38V25.6q0,.38.35.38h2.22a.3.3,0,0,0,.32-.27l0,.27v-7l.44,1.59,1,3.77.35,1.29a.55.55,0,0,0,.19.27.45.45,0,0,0,.29.11H181q.32,0,.25-.38L179,17.86A3.32,3.32,0,0,0,180.29,16.63Zm-2.45-1.94a.66.66,0,0,1-.18.46.56.56,0,0,1-.42.19h-.8V9.88h.8a.56.56,0,0,1,.42.19.66.66,0,0,1,.18.46Z"></path><path fill="currentColor" class="cls-1" d="M189.24,8a3.2,3.2,0,0,0-1-.73A2.82,2.82,0,0,0,187,7h-3.75c-.23,0-.35.13-.35.38V25.6q0,.38.35.38H187a2.81,2.81,0,0,0,1.22-.27,3.16,3.16,0,0,0,1-.73,3.52,3.52,0,0,0,.67-1.08,3.56,3.56,0,0,0,.25-1.33V10.4A3.58,3.58,0,0,0,189.24,8Zm-2,14.45a.66.66,0,0,1-.18.46.56.56,0,0,1-.42.19h-.8V9.88h.8a.55.55,0,0,1,.42.19.66.66,0,0,1,.18.46Z"></path><path fill="currentColor" class="cls-1" d="M201.23,7h-5.42q-.35,0-.35.38V25.6c0,.25.12.38.35.38H198c.23,0,.35-.13.35-.38V17.24h2.47c.23,0,.35-.13.35-.38V14.44c0-.25-.12-.38-.35-.38h-2.4V10.15h2.78c.23,0,.35-.13.35-.38V7.35C201.58,7.1,201.46,7,201.23,7Z"></path><path fill="currentColor" class="cls-1" d="M209.22,7H203.8q-.35,0-.35.38V25.6q0,.38.35.38h5.42c.23,0,.35-.13.35-.38V23.19c0-.25-.12-.38-.35-.38h-2.85V17.24h2.47c.23,0,.35-.13.35-.38V14.44c0-.26-.12-.38-.35-.38h-2.47V10.15h2.85c.23,0,.35-.13.35-.38V7.35C209.57,7.1,209.45,7,209.22,7Z"></path><path fill="currentColor" class="cls-1" d="M217.46,7H212q-.35,0-.35.38V25.6q0,.38.35.38h5.42c.23,0,.35-.13.35-.38V23.19c0-.25-.12-.38-.35-.38h-2.85V17.24h2.47c.23,0,.35-.13.35-.38V14.44c0-.26-.12-.38-.35-.38h-2.47V10.15h2.85c.23,0,.35-.13.35-.38V7.35C217.81,7.1,217.69,7,217.46,7Z"></path><path fill="currentColor" class="cls-1" d="M224,12.38l2.27-.65a.46.46,0,0,0,.33-.49h0v-1h0a3.59,3.59,0,0,0-.92-2.41,3.2,3.2,0,0,0-1-.73,2.84,2.84,0,0,0-1.22-.27h-.95a2.84,2.84,0,0,0-1.22.27,3.21,3.21,0,0,0-1,.73,3.49,3.49,0,0,0-.67,1.09,3.57,3.57,0,0,0-.25,1.33v3.26a2.59,2.59,0,0,0,.16,1,2.47,2.47,0,0,0,.54.76l2.8,2.34.42.35a1.08,1.08,0,0,1,.3.49,3.27,3.27,0,0,1,.1.63v3.58a.66.66,0,0,1-.17.46.55.55,0,0,1-.42.19h-.22a.55.55,0,0,1-.4-.19.65.65,0,0,1-.17-.46V19.28q0-.38-.32-.27l-2.27.65a.46.46,0,0,0-.32.49v2.61a3.57,3.57,0,0,0,.25,1.33,3.48,3.48,0,0,0,.67,1.09,3.19,3.19,0,0,0,1,.73,2.84,2.84,0,0,0,1.22.27h.95a2.84,2.84,0,0,0,1.22-.27,3.19,3.19,0,0,0,1-.73,3.48,3.48,0,0,0,.67-1.09,3.53,3.53,0,0,0,.25-1.32h0V18.08h0a5.16,5.16,0,0,0-.16-.88,1.77,1.77,0,0,0-.51-.77l-3.07-2.49-.2-.17a1.27,1.27,0,0,1-.28-.43,2.14,2.14,0,0,1-.1-.52V10.34a.66.66,0,0,1,.17-.46.55.55,0,0,1,.4-.19H223a.56.56,0,0,1,.42.19.66.66,0,0,1,.17.46v1.76C223.63,12.36,223.74,12.45,224,12.38Z"></path><path fill="currentColor" class="cls-1" d="M49.43,3.34A3.34,3.34,0,0,0,46.09,0H3.34A3.34,3.34,0,0,0,0,3.34V6.73H49.43Z"></path><path fill="currentColor" class="cls-1" d="M25,20.13a.54.54,0,0,0,.19.32.66.66,0,0,0,.65,0,.54.54,0,0,0,.19-.32,3.52,3.52,0,0,0,.09-.65q0-.41,0-1.05t0-1.06a3.49,3.49,0,0,0-.09-.64.54.54,0,0,0-.19-.32.66.66,0,0,0-.65,0,.54.54,0,0,0-.19.32,3.45,3.45,0,0,0-.09.64q0,.41,0,1.06t0,1.05A3.48,3.48,0,0,0,25,20.13Z"></path><path fill="currentColor" class="cls-1" d="M32.74,26.49a.54.54,0,0,0,.19.32.66.66,0,0,0,.65,0,.54.54,0,0,0,.19-.32,3.52,3.52,0,0,0,.09-.65q0-.41,0-1.05t0-1.06a3.49,3.49,0,0,0-.09-.64.54.54,0,0,0-.19-.32.66.66,0,0,0-.65,0,.54.54,0,0,0-.19.32,3.49,3.49,0,0,0-.09.64q0,.41,0,1.06t0,1.05A3.52,3.52,0,0,0,32.74,26.49Z"></path><path fill="currentColor" class="cls-1" d="M17.7,26.22a.79.79,0,0,0,.76-.5,5.17,5.17,0,0,0,.23-1.91V19.4a5.17,5.17,0,0,0-.23-1.91.82.82,0,0,0-1.51,0,5.17,5.17,0,0,0-.23,1.91v4.41a5.17,5.17,0,0,0,.23,1.91A.79.79,0,0,0,17.7,26.22Z"></path><path fill="currentColor" class="cls-1" d="M0,29.34a3,3,0,0,0,3,3H46.42a3,3,0,0,0,3-3V11.06H0Zm34.58-8a1.9,1.9,0,0,1,.87.63,2.74,2.74,0,0,1,.48,1.12,9.71,9.71,0,0,1,0,3.33,2.74,2.74,0,0,1-.48,1.12,1.72,1.72,0,0,1-.87.6,5.32,5.32,0,0,1-2.66,0,1.72,1.72,0,0,1-.87-.6,2.73,2.73,0,0,1-.48-1.12,8.25,8.25,0,0,1-.14-1.67,8.25,8.25,0,0,1,.14-1.67A2.74,2.74,0,0,1,31,22a1.9,1.9,0,0,1,.87-.63,4.59,4.59,0,0,1,2.66,0Zm-1.37-6.56L27.51,28.35h-2l5.71-13.54ZM22.83,16.76a2.73,2.73,0,0,1,.48-1.12,1.9,1.9,0,0,1,.87-.63,4.59,4.59,0,0,1,2.66,0,1.9,1.9,0,0,1,.87.63,2.74,2.74,0,0,1,.48,1.12,8.28,8.28,0,0,1,.14,1.67,8.28,8.28,0,0,1-.14,1.67,2.73,2.73,0,0,1-.48,1.12,1.89,1.89,0,0,1-.87.63,4.59,4.59,0,0,1-2.66,0,1.9,1.9,0,0,1-.87-.63,2.72,2.72,0,0,1-.48-1.12,8.25,8.25,0,0,1-.14-1.67A8.24,8.24,0,0,1,22.83,16.76Zm-9.21,1.52a5.61,5.61,0,0,1,.79-2.09,2.78,2.78,0,0,1,1.35-1.07,5.61,5.61,0,0,1,1.94-.3,5.61,5.61,0,0,1,1.94.3A2.79,2.79,0,0,1,21,16.18a5.61,5.61,0,0,1,.79,2.09A17.64,17.64,0,0,1,22,21.61a17.6,17.6,0,0,1-.26,3.34A5.5,5.5,0,0,1,21,27a2.69,2.69,0,0,1-1.35,1,6,6,0,0,1-1.94.28,6,6,0,0,1-1.94-.28,2.69,2.69,0,0,1-1.35-1,5.5,5.5,0,0,1-.79-2.07,17.56,17.56,0,0,1-.26-3.34A17.59,17.59,0,0,1,13.62,18.27Z"></path></g></g></svg>
